<svg xmlns="http://www.w3.org/2000/svg" xmlns:xlink="http://www.w3.org/1999/xlink" width="506" height="162" viewBox="0 0 506 162">
  <defs>
    <filter id="Union_1" x="0" y="0" width="496.001" height="162" filterUnits="userSpaceOnUse">
      <feOffset dy="15" input="SourceAlpha"/>
      <feGaussianBlur stdDeviation="3" result="blur"/>
      <feFlood flood-color="#255928" flood-opacity="0.659"/>
      <feComposite operator="in" in2="blur"/>
      <feComposite in="SourceGraphic"/>
    </filter>
    <filter id="Ellipse_4" x="344" y="1" width="162" height="160" filterUnits="userSpaceOnUse">
      <feOffset dy="15" input="SourceAlpha"/>
      <feGaussianBlur stdDeviation="3" result="blur-2"/>
      <feFlood flood-color="#2d5824" flood-opacity="0"/>
      <feComposite operator="in" in2="blur-2"/>
      <feComposite in="SourceGraphic"/>
    </filter>
  </defs>
  <g id="button_on" transform="translate(9)">
    <g transform="matrix(1, 0, 0, 1, -9, 0)" filter="url(#Union_1)">
      <g id="Union_1-2" data-name="Union 1" transform="translate(-283 2)" fill="#111202">
        <path d="M 359.0001220703125 135.4999389648438 C 350.0237731933594 135.4999389648438 341.3160705566406 133.70263671875 333.118896484375 130.1579284667969 C 329.1788330078125 128.4541778564453 325.3785400390625 126.3452301025391 321.8235778808594 123.8898162841797 C 318.3021240234375 121.4575271606445 314.9906005859375 118.6641159057617 311.9809875488281 115.5871734619141 C 308.9712219238281 112.5100555419922 306.2387084960938 109.1241149902344 303.8593444824219 105.5233459472656 C 301.4571228027344 101.887939453125 299.3938293457031 98.00157928466797 297.7268371582031 93.97216796875 C 294.25830078125 85.58805084228516 292.4996032714844 76.68152618408203 292.4996032714844 67.49999237060547 C 292.4996032714844 58.56723022460938 294.1671142578125 49.88440704345703 297.455810546875 41.69258117675781 C 299.0376586914063 37.75246429443359 300.9976501464844 33.94164276123047 303.2814025878906 30.36593627929688 C 305.5423583984375 26.82605361938477 308.1427001953125 23.4817008972168 311.0102233886719 20.42587661743164 C 313.8746337890625 17.37334823608398 317.0322265625 14.58034706115723 320.3953552246094 12.1244649887085 C 323.7853393554688 9.648877143859863 327.4171142578125 7.491935729980469 331.1898193359375 5.713465213775635 C 339.0147705078125 2.024700403213501 347.3698120117188 -0.04324071109294891 356.0228881835938 -0.4329465925693512 L 356.5003967285156 -0.4544171690940857 L 356.5003967285156 -0.4998877644538879 L 691.5300903320313 -0.4998877644538879 L 691.5738525390625 -0.4998877644538879 L 691.6170043945313 -0.5074760317802429 C 695.3489379882813 -1.16594660282135 699.1787719726563 -1.499770164489746 702.9999389648438 -1.499770164489746 C 706.8211059570313 -1.499770164489746 710.6510009765625 -1.16594660282135 714.3831176757813 -0.5074760317802429 L 714.4262084960938 -0.4998877644538879 L 714.469970703125 -0.4998877644538879 L 715.5004272460938 -0.4998877644538879 L 715.5004272460938 -0.3015936613082886 L 715.90185546875 -0.2209465950727463 C 723.4232788085938 1.290759325027466 730.5765380859375 4.105876922607422 737.1629638671875 8.146170616149902 C 743.6170043945313 12.10534763336182 749.3342895507813 17.11911201477051 754.156005859375 23.04817199707031 C 759.0159301757813 29.02417182922363 762.8060913085938 35.73552322387695 765.4212646484375 42.99570083618164 C 768.1279907226563 50.50993728637695 769.5004272460938 58.41793441772461 769.5004272460938 66.50011444091797 C 769.5004272460938 74.58222961425781 768.1279907226563 82.49028778076172 765.4212646484375 90.00446319580078 C 762.8060913085938 97.26470184326172 759.0159301757813 103.9760513305664 754.156005859375 109.9520568847656 C 749.3342895507813 115.8811111450195 743.6170043945313 120.8948211669922 737.1629638671875 124.8539962768555 C 730.5765380859375 128.8943481445313 723.4232177734375 131.7094116210938 715.90185546875 133.2211151123047 L 715.5004272460938 133.3017578125 L 715.5004272460938 133.7112884521484 L 715.5004272460938 134.5 L 702.9999389648438 134.5 L 370.4699401855469 134.5 L 370.4261779785156 134.5 L 370.383056640625 134.5075836181641 C 366.6508178710938 135.1660461425781 362.821044921875 135.4999389648438 359.0001220703125 135.4999389648438 Z" stroke="none"/>
        <path d="M 359.0001220703125 134.9999389648438 C 362.7919921875 134.9999389648438 366.592529296875 134.6686401367188 370.2961730957031 134.0152282714844 L 370.3824157714844 134 L 370.4699401855469 134 L 702.9999389648438 134 L 715.0004272460938 134 L 715.0004272460938 133.7112884521484 L 715.0004272460938 132.8922882080078 L 715.8033447265625 132.7308807373047 C 723.2669677734375 131.2308807373047 730.3653564453125 128.4372863769531 736.9014892578125 124.4278182983398 C 743.3073120117188 120.4982299804688 748.9820556640625 115.5217590332031 753.7681274414063 109.6365814208984 C 758.5924072265625 103.704345703125 762.3547973632813 97.04216766357422 764.9508666992188 89.83505249023438 C 767.637939453125 82.37535095214844 769.0004272460938 74.52434539794922 769.0004272460938 66.50011444091797 C 769.0004272460938 58.47587585449219 767.637939453125 50.6248779296875 764.9508666992188 43.1651725769043 C 762.3547973632813 35.95805358886719 758.5924072265625 29.29581832885742 753.7681274414063 23.3636417388916 C 748.9820556640625 17.47846603393555 743.3073120117188 12.50199413299561 736.9014892578125 8.572406768798828 C 730.3653564453125 4.56287670135498 723.2669677734375 1.769347548484802 715.8033447265625 0.2692886888980865 L 715.0004272460938 0.1078769341111183 L 715.0004272460938 0.0001122292887885123 L 714.469970703125 0.0001122292887885123 L 714.3824462890625 0.0001122292887885123 L 714.2962646484375 -0.01512306462973356 C 710.5927124023438 -0.6684759855270386 706.7920532226563 -0.9997701048851013 702.9999389648438 -0.9997701048851013 C 699.207763671875 -0.9997701048851013 695.4072265625 -0.6684759855270386 691.703857421875 -0.01512306462973356 L 691.61767578125 0.0001122292887885123 L 691.5300903320313 0.0001122292887885123 L 357.0003967285156 0.0001122292887885123 L 357.0003967285156 0.02358281798660755 L 356.04541015625 0.0665828138589859 C 347.4587097167969 0.4532887041568756 339.1678161621094 2.505347490310669 331.4030151367188 6.165759086608887 C 327.6589965820313 7.930700302124023 324.0546569824219 10.0713472366333 320.6902465820313 12.52822971343994 C 317.3521728515625 14.96587657928467 314.2179870605469 17.73811149597168 311.3748168945313 20.76805305480957 C 308.5284118652344 23.80134773254395 305.9471740722656 27.12111282348633 303.7028198242188 30.63511276245117 C 301.4357604980469 34.18464279174805 299.4900512695313 37.96758270263672 297.9198303222656 41.87887573242188 C 294.6549987792969 50.01116943359375 292.9996032714844 58.63134765625 292.9996032714844 67.49999237060547 C 292.9996032714844 76.61558532714844 294.7455444335938 85.45781707763672 298.1888732910156 93.78099822998047 C 299.8436584472656 97.78099822998047 301.8918151855469 101.6389389038086 304.2765197753906 105.2477035522461 C 306.6383972167969 108.8219909667969 309.350830078125 112.1831130981445 312.3384094238281 115.2375259399414 C 315.3256530761719 118.2916412353516 318.6125183105469 121.0642852783203 322.1077575683594 123.4784088134766 C 325.6358337402344 125.9152908325195 329.4072875976563 128.0081634521484 333.3173522949219 129.6989898681641 C 341.4514770507813 133.2164611816406 350.0924072265625 134.9999389648438 359.0001220703125 134.9999389648438 M 359.0001220703125 135.9999389648438 C 321.9966430664063 135.9999389648438 291.9996032714844 105.3315277099609 291.9996032714844 67.49999237060547 C 291.9996032714844 30.69605255126953 320.3887023925781 0.6714063286781311 356.0003967285156 -0.9324171543121338 L 356.0003967285156 -0.9998877644538879 L 691.5300903320313 -0.9998877644538879 C 695.2579956054688 -1.657593607902527 699.0882568359375 -1.999770164489746 702.9999389648438 -1.999770164489746 C 706.9116821289063 -1.999770164489746 710.741943359375 -1.657593607902527 714.469970703125 -0.9998877644538879 L 716.0004272460938 -0.9998877644538879 L 716.0004272460938 -0.7111230492591858 C 746.7831420898438 5.475700378417969 770.0004272460938 33.21511077880859 770.0004272460938 66.50011444091797 C 770.0004272460938 99.78505706787109 746.7831420898438 127.5245208740234 716.0004272460938 133.7112884521484 L 716.0004272460938 135 L 702.9999389648438 135 L 370.4699401855469 135 C 366.7420043945313 135.6576995849609 362.9117736816406 135.9999389648438 359.0001220703125 135.9999389648438 Z" stroke="none" fill="#707070"/>
      </g>
    </g>
    <g transform="matrix(1, 0, 0, 1, -9, 0)" filter="url(#Ellipse_4)">
      <g id="Ellipse_4-2" data-name="Ellipse 4" transform="translate(353 1)" fill="#1be40c" stroke="#707070" stroke-width="1">
        <ellipse cx="72" cy="68" rx="72" ry="68" stroke="none"/>
        <ellipse cx="72" cy="68" rx="71.5" ry="67.5" fill="none"/>
      </g>
    </g>
  </g>
</svg>
