<svg id="floating_button" xmlns="http://www.w3.org/2000/svg" width="180" height="180" viewBox="0 0 180 180">
  <g id="Ellipse_8" data-name="Ellipse 8" fill="#040404" stroke="#707070" stroke-width="1">
    <circle cx="90" cy="90" r="90" stroke="none"/>
    <circle cx="90" cy="90" r="89.5" fill="none"/>
  </g>
  <g id="Union_3" data-name="Union 3" transform="translate(-268 26)" fill="#fff">
    <path d="M 363.4996032714844 133.5001220703125 L 356.5003967285156 133.5001220703125 L 356.5003967285156 70.00020599365234 L 356.5003967285156 69.50020599365234 L 356.0003967285156 69.50020599365234 L 292.4996032714844 69.50020599365234 L 292.4996032714844 62.50009918212891 L 356.0003967285156 62.50009918212891 L 356.5003967285156 62.50009918212891 L 356.5003967285156 62.00009918212891 L 356.5003967285156 -1.499792814254761 L 363.4996032714844 -1.499792814254761 L 363.4996032714844 62.00009918212891 L 363.4996032714844 62.50009918212891 L 363.9996032714844 62.50009918212891 L 419.5003051757813 62.50009918212891 L 419.5003051757813 69.50020599365234 L 363.9996032714844 69.50020599365234 L 363.4996032714844 69.50020599365234 L 363.4996032714844 70.00020599365234 L 363.4996032714844 133.5001220703125 Z" stroke="none"/>
    <path d="M 362.9996032714844 133.0001220703125 L 362.9996032714844 70.00020599365234 L 362.9996032714844 69.00020599365234 L 363.9996032714844 69.00020599365234 L 419.0003051757813 69.00020599365234 L 419.0003051757813 63.00009918212891 L 363.9996032714844 63.00009918212891 L 362.9996032714844 63.00009918212891 L 362.9996032714844 62.00009918212891 L 362.9996032714844 -0.9997928738594055 L 357.0003967285156 -0.9997928738594055 L 357.0003967285156 62.00009918212891 L 357.0003967285156 63.00009918212891 L 356.0003967285156 63.00009918212891 L 292.9996032714844 63.00009918212891 L 292.9996032714844 69.00020599365234 L 356.0003967285156 69.00020599365234 L 357.0003967285156 69.00020599365234 L 357.0003967285156 70.00020599365234 L 357.0003967285156 133.0001220703125 L 362.9996032714844 133.0001220703125 M 363.9996032714844 134.0001220703125 L 356.0003967285156 134.0001220703125 L 356.0003967285156 70.00020599365234 L 291.9996032714844 70.00020599365234 L 291.9996032714844 62.00009918212891 L 356.0003967285156 62.00009918212891 L 356.0003967285156 -1.999792814254761 L 363.9996032714844 -1.999792814254761 L 363.9996032714844 62.00009918212891 L 420.0003051757813 62.00009918212891 L 420.0003051757813 70.00020599365234 L 363.9996032714844 70.00020599365234 L 363.9996032714844 134.0001220703125 Z" stroke="none" fill="#707070"/>
  </g>
</svg>
